<svg width="86" height="155" viewBox="0 0 86 155" fill="none" xmlns="http://www.w3.org/2000/svg">
<path d="M4.75 66.75C1.91667 63.0833 0.75 59 1.25 54.5C1.91667 50 4.08333 46.25 7.75 43.25L57 5C60.6667 1.66667 64.8333 0 69.5 0C74 0.166667 77.8333 1.83333 81 5C84.1667 8 85.8333 11.75 86 16.25V138.75C85 148.75 79.5 154.167 69.5 155C64.8333 155 60.75 153.5 57.25 150.5C53.9167 147.333 52.25 143.417 52.25 138.75V51.25L28.25 69.75C24.5833 72.5833 20.5 73.6667 16 73C11.3333 72.5 7.58333 70.4167 4.75 66.75Z" fill="#FF00D9"/>
</svg>
