<svg width="170" height="147" viewBox="0 0 170 147" fill="none" xmlns="http://www.w3.org/2000/svg">
<path d="M2 16.75C2 12.0833 3.58333 8.16667 6.75 5C10.0833 1.66667 14.0833 0 18.75 0H115.25C116.25 0 117.25 0.0833333 118.25 0.25H119.75C131.417 0.583333 141 3.25 148.5 8.25C156 13.25 161.417 19 164.75 25.5C168.083 31.8333 169.75 38.25 169.75 44.75C169.75 51.4167 168.083 58 164.75 64.5C161.583 70.8333 156.167 76.5 148.5 81.5C141 86.5 131.417 89.1667 119.75 89.5H48.75C45.5833 89.6667 42.9167 90.4167 40.75 91.75C38.75 93.0833 37.25 94.8333 36.25 97C35.25 99 34.75 100.583 34.75 101.75V107C34.75 109.167 35.25 110.833 36.25 112C37.4167 113.167 39.5833 113.667 42.75 113.5H151.75C156.417 113.5 160.333 115.167 163.5 118.5C166.833 121.667 168.5 125.583 168.5 130.25C168.5 134.917 166.833 138.917 163.5 142.25C160.333 145.417 156.417 147 151.75 147H29.25C19.9167 147 12.75 144.75 7.75 140.25C2.91667 135.583 0.416667 129 0.25 120.5V101.75C0.25 94.9167 1.83333 88.25 5 81.75C8.33333 75.0833 13.75 69.25 21.25 64.25C28.9167 59.0833 38.5833 56.3333 50.25 56H121.25C124.417 55.8333 127 55.1667 129 54C131.167 52.6667 132.75 51.25 133.75 49.75C134.75 48.0833 135.25 46.4167 135.25 44.75C135.25 43.0833 134.75 41.5 133.75 40C132.75 38.3333 131.167 36.9167 129 35.75C127 34.4167 124.417 33.6667 121.25 33.5H18.75C14.0833 33.5 10.1667 31.8333 7 28.5C3.66667 25.3333 2 21.4167 2 16.75Z" fill="#FF00D9"/>
</svg>
