<svg width="167" height="147" viewBox="0 0 167 147" fill="none" xmlns="http://www.w3.org/2000/svg">
<path d="M0.5 130.25C0.5 125.583 2.16667 121.667 5.5 118.5C8.66667 115.167 12.5833 113.5 17.25 113.5H118.25C121.417 113.333 124 112.583 126 111.25C128.167 109.917 129.75 108.417 130.75 106.75C131.75 105.083 132.25 103.333 132.25 101.5C132.25 99.6667 131.75 97.9167 130.75 96.25C129.75 94.5833 128.167 93.0833 126 91.75C124 90.4167 121.417 89.6667 118.25 89.5H17.75C13.0833 89.5 9.16667 87.8333 6 84.5C2.66667 81.3333 1 77.4167 1 72.75C1 68.0833 2.58333 64.1667 5.75 61C9.08333 57.6667 13.0833 56 17.75 56H116.75C116.917 56 117.083 56 117.25 56C120.417 55.8333 123 55.1667 125 54C127.167 52.6667 128.75 51.1667 129.75 49.5C130.75 47.8333 131.25 46.0833 131.25 44.25C131.25 42.5833 130.75 40.9167 129.75 39.25C128.75 37.5833 127.167 36.1667 125 35C123 33.6667 120.417 32.9167 117.25 32.75H16.75C12.0833 32.75 8.16667 31.0833 5 27.75C1.66667 24.75 0 20.9167 0 16.25C0 11.75 1.58333 7.91667 4.75 4.75C8.08333 1.58333 12.0833 0 16.75 0H115.75C127.417 0.166667 137 2.75 144.5 7.75C152.167 12.5833 157.583 18.25 160.75 24.75C164.083 31.25 165.75 37.75 165.75 44.25C165.75 50.75 164.083 57.1667 160.75 63.5C159.25 66.5 157.333 69.25 155 71.75C157.833 74.75 160.167 77.9167 162 81.25C165.167 87.9167 166.75 94.6667 166.75 101.5C166.75 108 165.083 114.583 161.75 121.25C158.417 127.75 153 133.583 145.5 138.75C138 143.75 128.417 146.417 116.75 146.75H115.25C114.25 146.917 113.25 147 112.25 147H17.25C12.5833 147 8.58333 145.417 5.25 142.25C2.08333 138.917 0.5 134.917 0.5 130.25Z" fill="#FF00D9"/>
</svg>
