<svg width="663" height="78" viewBox="0 0 663 78" fill="none" xmlns="http://www.w3.org/2000/svg">
<path d="M9.35251 0C11.6025 0.0833333 13.5192 0.916667 15.1025 2.5C16.6858 4 17.5192 5.875 17.6025 8.125V69.375C17.1025 74.375 14.3525 77.0833 9.35251 77.5C7.01918 77.5 4.97751 76.75 3.22751 75.25C1.56084 73.6667 0.727509 71.7083 0.727509 69.375V8.125C0.810842 5.79167 1.68584 3.875 3.35251 2.375C5.01918 0.791667 7.01918 0 9.35251 0ZM30.7275 22C36.3108 18.25 43.8525 14.4583 53.3525 10.625L73.8525 1.875C74.7692 1.45833 75.7692 1.20833 76.8525 1.125C79.1858 0.958333 81.1858 1.66667 82.8525 3.25C84.5192 4.75 85.3525 6.70833 85.3525 9.125C85.3525 11.875 84.7692 13.9167 83.6025 15.25C82.5192 16.5 81.1025 17.5417 79.3525 18.375L61.8525 25C58.4358 26.3333 55.1858 27.6667 52.1025 29C49.1025 30.25 46.3525 31.7083 43.8525 33.375C41.3525 34.875 40.0192 36.5833 39.8525 38.5C40.0192 40.3333 41.3525 42.0417 43.8525 43.625C46.3525 45.2917 49.1025 46.7917 52.1025 48.125C55.1858 49.375 58.4358 50.6667 61.8525 52L81.3525 59.125C83.1025 59.9583 84.5192 61.0417 85.6025 62.375C86.7692 63.625 87.3525 65.625 87.3525 68.375C87.3525 70.7917 86.5192 72.7917 84.8525 74.375C83.1858 75.875 81.1858 76.5417 78.8525 76.375C77.7692 76.2917 76.7692 76.0417 75.8525 75.625L53.3525 66.375C43.8525 62.5417 36.2692 58.75 30.6025 55C25.0192 51.1667 22.1858 45.6667 22.1025 38.5C22.1858 31.3333 25.0608 25.8333 30.7275 22ZM116.423 69.125C115.923 74.125 113.173 76.8333 108.173 77.25C105.839 77.25 103.798 76.5 102.048 75C100.381 73.4167 99.5475 71.4583 99.5475 69.125V10.125C99.6308 7.79167 100.506 5.875 102.173 4.375C103.839 2.79167 105.839 2 108.173 2H160.673C168.006 2.25 173.548 3.875 177.298 6.875C181.048 9.79167 183.756 13.125 185.423 16.875C187.089 20.625 187.923 24.4167 187.923 28.25C187.923 32.25 187.089 36.125 185.423 39.875C183.839 43.625 181.131 47 177.298 50C173.548 52.9167 168.756 54.3333 162.923 54.25H131.423C129.089 54.25 127.131 53.4167 125.548 51.75C123.881 50.1667 123.048 48.2083 123.048 45.875C123.048 43.5417 123.839 41.5833 125.423 40C127.089 38.3333 129.089 37.5 131.423 37.5H163.673C165.256 37.5 166.548 37 167.548 36C168.631 34.9167 169.423 33.7083 169.923 32.375C170.423 30.9583 170.673 29.5417 170.673 28.125C170.673 26.7917 170.423 25.4583 169.923 24.125C169.423 22.7083 168.631 21.5 167.548 20.5C166.548 19.4167 165.256 18.8333 163.673 18.75H119.673C117.506 18.8333 116.423 19.9167 116.423 22V69.125ZM198.117 67.375C198.117 65.0417 198.909 63.0833 200.492 61.5C202.159 59.8333 204.159 59 206.492 59H230.492V18.75H206.492C204.159 18.75 202.201 17.9167 200.617 16.25C198.951 14.6667 198.117 12.7083 198.117 10.375C198.117 8.04167 198.909 6.08333 200.492 4.5C202.159 2.83333 204.159 2 206.492 2H271.242C273.576 2 275.576 2.79167 277.242 4.375C278.826 6.04167 279.617 8.04167 279.617 10.375C279.617 12.7083 278.784 14.7083 277.117 16.375C275.534 17.9583 273.576 18.75 271.242 18.75H247.367V59H271.242C273.576 59 275.576 59.7917 277.242 61.375C278.826 63.0417 279.617 65.0417 279.617 67.375C279.617 69.7083 278.784 71.7083 277.117 73.375C275.534 74.9583 273.576 75.75 271.242 75.75H206.492C204.159 75.75 202.201 74.9167 200.617 73.25C198.951 71.6667 198.117 69.7083 198.117 67.375ZM319.188 0C321.521 0 323.521 0.791667 325.188 2.375C326.854 3.875 327.729 5.79167 327.812 8.125V19H370.312C372.646 19 374.646 19.7917 376.312 21.375C377.896 23.0417 378.688 25.0417 378.688 27.375C378.688 29.7083 377.854 31.7083 376.188 33.375C374.604 34.9583 372.646 35.75 370.312 35.75H327.812V38.25C327.729 41.6667 327.938 44.8333 328.438 47.75C329.021 50.5833 330.354 53.125 332.438 55.375C334.521 57.625 337.146 58.8333 340.312 59H370.812C373.146 59.0833 375.062 59.9583 376.562 61.625C378.146 63.2917 378.938 65.2917 378.938 67.625C378.854 69.875 378.021 71.7917 376.438 73.375C374.938 74.875 373.062 75.6667 370.812 75.75H336.062C330.229 75.4167 325.396 73.4583 321.562 69.875C317.812 66.2083 315.104 61.75 313.438 56.5C311.854 51.25 311.021 45.6667 310.938 39.75V35.75H296.562C294.229 35.75 292.271 34.9167 290.688 33.25C289.021 31.6667 288.188 29.7083 288.188 27.375C288.188 25.0417 288.979 23.0833 290.562 21.5C292.229 19.8333 294.229 19 296.562 19H310.938V8.125C311.021 5.875 311.854 4 313.438 2.5C315.021 0.916667 316.938 0.0833333 319.188 0ZM417.633 0C419.966 0 421.966 0.791667 423.633 2.375C425.299 3.875 426.174 5.79167 426.258 8.125V19H468.758C471.091 19 473.091 19.7917 474.758 21.375C476.341 23.0417 477.133 25.0417 477.133 27.375C477.133 29.7083 476.299 31.7083 474.633 33.375C473.049 34.9583 471.091 35.75 468.758 35.75H426.258V38.25C426.174 41.6667 426.383 44.8333 426.883 47.75C427.466 50.5833 428.799 53.125 430.883 55.375C432.966 57.625 435.591 58.8333 438.758 59H469.258C471.591 59.0833 473.508 59.9583 475.008 61.625C476.591 63.2917 477.383 65.2917 477.383 67.625C477.299 69.875 476.466 71.7917 474.883 73.375C473.383 74.875 471.508 75.6667 469.258 75.75H434.508C428.674 75.4167 423.841 73.4583 420.008 69.875C416.258 66.2083 413.549 61.75 411.883 56.5C410.299 51.25 409.466 45.6667 409.383 39.75V35.75H395.008C392.674 35.75 390.716 34.9167 389.133 33.25C387.466 31.6667 386.633 29.7083 386.633 27.375C386.633 25.0417 387.424 23.0833 389.008 21.5C390.674 19.8333 392.674 19 395.008 19H409.383V8.125C409.466 5.875 410.299 4 411.883 2.5C413.466 0.916667 415.383 0.0833333 417.633 0ZM514.578 75.75C507.244 75.5 501.703 73.7917 497.953 70.625C494.203 67.375 491.494 63.75 489.828 59.75C488.161 55.6667 487.328 51.5417 487.328 47.375C487.328 43.0417 488.119 38.875 489.703 34.875C491.369 30.7917 494.078 27.1667 497.828 24C501.661 20.75 506.494 19.0833 512.328 19H559.828C562.161 19 564.119 19.7917 565.703 21.375C567.369 22.875 568.203 24.7083 568.203 26.875C568.203 29.125 567.369 31.0417 565.703 32.625C564.119 34.125 562.161 34.875 559.828 34.875H513.078C511.244 34.875 509.619 35.5 508.203 36.75C506.869 38 505.869 39.625 505.203 41.625C504.619 43.625 504.328 45.5833 504.328 47.5C504.328 49.5833 504.619 51.625 505.203 53.625C505.869 55.625 506.869 57.25 508.203 58.5C509.619 59.6667 511.244 60.2917 513.078 60.375H559.828C562.161 60.375 564.119 61.125 565.703 62.625C567.369 64.125 568.203 65.9167 568.203 68C568.203 70.1667 567.369 72 565.703 73.5C564.119 75 562.161 75.75 559.828 75.75H514.578ZM566.703 47.125C566.703 48.7083 565.994 50.0833 564.578 51.25C563.328 52.3333 561.744 52.875 559.828 52.875H518.953C517.036 52.875 515.411 52.3333 514.078 51.25C512.744 50.0833 512.078 48.7083 512.078 47.125C512.078 45.625 512.744 44.2917 514.078 43.125C515.411 42.0417 517.036 41.5 518.953 41.5H559.828C561.744 41.5 563.369 42.0833 564.703 43.25C566.036 44.3333 566.703 45.625 566.703 47.125ZM584.772 34.75C586.356 30.75 589.022 27.1667 592.772 24C596.606 20.75 601.439 19.0833 607.272 19H654.272C656.606 19 658.564 19.8333 660.147 21.5C661.814 23.0833 662.647 25.0417 662.647 27.375C662.647 29.7083 661.814 31.7083 660.147 33.375C658.564 34.9583 656.606 35.75 654.272 35.75H606.772C605.189 35.75 603.814 36.4167 602.647 37.75C601.481 39 600.564 40.5 599.897 42.25C599.314 44 599.022 45.6667 599.022 47.25V69.125C598.522 74.125 595.772 76.8333 590.772 77.25C588.439 77.25 586.397 76.5 584.647 75C582.981 73.4167 582.147 71.4583 582.147 69.125V47.375H582.272C582.272 43.0417 583.106 38.8333 584.772 34.75Z" fill="#FF00D9"/>
</svg>
